<svg xmlns="http://www.w3.org/2000/svg" xmlns:xlink="http://www.w3.org/1999/xlink" width="500" zoomAndPan="magnify" viewBox="0 0 375 374.999991" height="500" preserveAspectRatio="xMidYMid meet" version="1.0"><defs><g/><clipPath id="dd1c90c31a"><path d="M 0 5.027344 L 367.476562 5.027344 L 367.476562 372.503906 L 0 372.503906 Z M 0 5.027344 " clip-rule="nonzero"/></clipPath></defs><g clip-path="url(#dd1c90c31a)"><path fill="#222222" d="M 313.988281 58.878906 C 279.265625 24.15625 233.0625 5.027344 183.921875 5.027344 C 82.542969 5.027344 0 87.5 0 188.949219 C 0 290.398438 82.46875 372.871094 183.921875 372.871094 C 285.371094 372.871094 367.839844 290.398438 367.839844 188.949219 C 367.839844 139.804688 348.714844 93.605469 313.988281 58.878906 Z M 313.988281 58.878906 " fill-opacity="1" fill-rule="nonzero"/><path fill="#ffffff" d="M 183.921875 372.871094 C 82.539062 372.871094 0 290.332031 0 188.949219 C 0 87.566406 82.539062 5.027344 183.921875 5.027344 C 285.304688 5.027344 367.839844 87.566406 367.839844 188.949219 C 367.839844 290.332031 285.304688 372.871094 183.921875 372.871094 Z M 183.921875 7.746094 C 83.988281 7.746094 2.71875 89.015625 2.71875 188.949219 C 2.71875 288.882812 83.988281 370.152344 183.921875 370.152344 C 283.855469 370.152344 365.121094 288.882812 365.121094 188.949219 C 365.121094 89.015625 283.855469 7.746094 183.921875 7.746094 Z M 183.921875 7.746094 " fill-opacity="1" fill-rule="nonzero"/></g><g fill="#ffffff" fill-opacity="1"><g transform="translate(43.530342, 239.367011)"><g><path d="M 22.15625 -121.988281 C 20.941406 -122.472656 21.425781 -122.230469 19.722656 -122.472656 C 19.722656 -124.664062 21.671875 -135.136719 23.132812 -137.328125 C 23.132812 -131.96875 22.402344 -126.855469 22.15625 -121.988281 Z M 99.34375 -156.5625 L 99.585938 -156.5625 C 99.585938 -156.5625 99.34375 -156.5625 99.34375 -156.5625 Z M 99.34375 -155.585938 C 93.984375 -132.945312 71.828125 -92.769531 58.4375 -71.097656 C 49.671875 -56.488281 42.125 -46.75 33.359375 -33.601562 C 31.898438 -32.382812 28.730469 -27.269531 27.515625 -26.296875 L 28 -58.191406 C 28.246094 -60.628906 28.730469 -61.113281 28.730469 -63.792969 C 28.730469 -73.53125 28.730469 -93.253906 29.707031 -101.535156 C 29.707031 -104.457031 33.84375 -148.527344 25.324219 -148.527344 C 18.992188 -148.527344 16.800781 -127.101562 16.800781 -120.769531 C 16.800781 -119.308594 16.800781 -119.308594 17.042969 -118.578125 C 18.261719 -118.335938 18.992188 -118.089844 19.480469 -118.089844 C 20.453125 -118.089844 20.695312 -118.820312 22.15625 -119.796875 L 21.425781 -105.1875 C 20.941406 -96.90625 20.941406 -68.417969 20.941406 -58.4375 L 20.210938 -19.964844 C 20.453125 -9.253906 14.609375 -10.714844 14.609375 -1.703125 C 14.609375 1.703125 16.800781 5.355469 19.722656 5.601562 C 19.722656 13.878906 19.722656 22.15625 19.722656 30.191406 C 19.722656 33.359375 20.210938 44.558594 20.941406 47.238281 C 21.425781 49.183594 22.15625 49.914062 23.863281 50.402344 C 26.296875 48.941406 26.296875 46.019531 26.296875 42.125 L 27.027344 9.496094 C 28.730469 9.496094 30.921875 9.984375 32.628906 10.226562 C 34.332031 10.714844 36.28125 10.714844 38.226562 10.957031 C 51.863281 13.390625 86.679688 22.402344 98.613281 27.757812 C 100.074219 28.730469 101.535156 29.21875 102.75 30.191406 C 103.726562 30.679688 105.917969 32.628906 107.621094 32.628906 C 108.59375 32.628906 109.324219 31.898438 109.324219 29.460938 C 109.324219 20.695312 46.992188 5.601562 38.472656 3.652344 C 35.0625 3.164062 30.679688 2.191406 27.027344 1.460938 C 27.027344 -15.097656 24.835938 -9.738281 33.601562 -22.15625 C 35.550781 -24.835938 37.496094 -27.757812 39.203125 -30.679688 C 41.636719 -33.601562 43.585938 -36.765625 46.019531 -39.6875 C 47.96875 -42.609375 49.914062 -45.777344 51.617188 -48.699219 C 68.664062 -73.777344 88.140625 -108.59375 97.882812 -137.328125 C 98.613281 -139.273438 107.863281 -164.351562 101.777344 -164.351562 C 99.585938 -164.351562 98.613281 -162.160156 97.636719 -159.96875 C 95.445312 -155.832031 96.90625 -155.585938 98.613281 -155.585938 C 98.855469 -155.585938 99.097656 -155.585938 99.34375 -155.585938 Z M 99.34375 -155.585938 "/></g></g></g><g fill="#ffffff" fill-opacity="1"><g transform="translate(113.896659, 239.367011)"><g><path d="M 42.855469 8.765625 L 41.148438 6.085938 C 36.523438 -2.191406 24.835938 -12.175781 16.3125 -16.558594 L 4.871094 -22.15625 C 5.601562 -22.402344 8.277344 -23.863281 9.253906 -24.59375 L 43.097656 -41.148438 C 43.097656 -24.347656 42.855469 -8.523438 42.855469 8.765625 Z M 43.585938 -46.75 L 12.660156 -31.898438 C 10.957031 -30.4375 9.984375 -29.949219 8.035156 -28.730469 C 0.972656 -25.324219 1.460938 -23.863281 -0.242188 -23.863281 C -1.21875 -23.863281 -2.921875 -24.347656 -7.546875 -25.324219 L -38.957031 -32.871094 C -48.453125 -35.792969 -38.472656 -44.070312 -35.304688 -48.699219 L -14.121094 -66.957031 C -13.148438 -67.6875 -12.175781 -68.175781 -11.199219 -68.664062 C -0.242188 -77.183594 9.738281 -83.273438 21.425781 -90.578125 C 23.617188 -92.039062 25.324219 -92.769531 27.269531 -94.230469 L 46.507812 -104.699219 C 46.507812 -99.585938 46.019531 -95.445312 45.777344 -90.578125 C 45.53125 -85.707031 45.046875 -81.324219 45.046875 -76.210938 C 44.558594 -66.714844 43.585938 -57.707031 43.585938 -46.75 Z M 47.722656 -111.273438 L 28.730469 -101.289062 C 27.269531 -100.804688 26.054688 -99.585938 24.59375 -98.855469 L 15.339844 -93.5 C 13.636719 -92.28125 12.417969 -91.550781 10.714844 -90.578125 C 9.253906 -89.601562 8.035156 -88.871094 6.574219 -87.898438 L -14.851562 -73.289062 C -24.835938 -65.742188 -37.253906 -55.515625 -44.800781 -45.53125 C -45.777344 -44.070312 -46.75 -42.367188 -47.238281 -40.664062 C -48.210938 -39.203125 -48.699219 -36.765625 -48.453125 -35.0625 C -46.75 -27.757812 -36.035156 -25.808594 -29.707031 -25.078125 L -6.332031 -19.722656 L -10.957031 -15.828125 C -17.289062 -10.714844 -15.097656 -8.277344 -10.714844 -8.277344 C -8.277344 -8.277344 -7.0625 -8.765625 -5.113281 -9.738281 C -5.113281 -11.6875 -5.601562 -12.175781 -6.574219 -12.175781 C -7.304688 -12.175781 -8.523438 -11.6875 -9.738281 -11.6875 C -8.765625 -13.390625 -2.679688 -18.261719 -0.972656 -18.019531 C -0.242188 -17.773438 -0.242188 -17.773438 0.488281 -17.53125 C 1.21875 -17.289062 2.191406 -16.800781 2.921875 -16.558594 C 22.402344 -8.035156 39.445312 4.140625 42.855469 26.296875 C 43.339844 29.707031 43.585938 30.679688 46.507812 30.679688 C 50.644531 30.679688 49.183594 18.019531 49.183594 13.636719 L 49.183594 -19.964844 C 49.429688 -21.914062 49.671875 -22.402344 49.671875 -24.835938 C 49.671875 -31.652344 50.160156 -37.742188 50.160156 -44.070312 L 65.496094 -50.402344 C 68.90625 -51.617188 79.863281 -55.515625 82.542969 -55.515625 C 81.324219 -53.566406 78.644531 -53.078125 78.644531 -50.644531 C 78.644531 -49.671875 79.132812 -49.429688 79.863281 -49.429688 C 82.785156 -49.429688 90.332031 -55.269531 90.332031 -57.707031 C 90.332031 -60.382812 88.871094 -60.628906 87.167969 -60.628906 C 86.4375 -60.628906 85.464844 -60.628906 84.734375 -60.628906 C 81.566406 -60.628906 70.367188 -56.976562 66.714844 -55.757812 C 65.011719 -55.269531 64.28125 -54.539062 62.820312 -54.296875 C 58.921875 -52.835938 53.808594 -51.132812 50.160156 -49.429688 L 52.347656 -92.769531 C 52.59375 -98.125 52.59375 -102.507812 52.59375 -107.863281 C 53.808594 -108.839844 54.785156 -109.082031 56.488281 -109.8125 L 64.28125 -113.953125 C 72.800781 -118.820312 102.507812 -131.238281 111.761719 -133.1875 C 116.386719 -133.675781 119.308594 -134.40625 124.179688 -134.40625 C 124.179688 -132.699219 124.910156 -131.96875 125.882812 -131.96875 C 128.5625 -131.96875 132.945312 -139.03125 121.5 -139.03125 C 109.324219 -139.03125 96.175781 -133.917969 84.976562 -129.292969 L 53.078125 -114.4375 C 53.078125 -116.386719 53.566406 -116.386719 53.566406 -118.578125 L 54.785156 -146.578125 C 54.785156 -149.015625 54.539062 -149.988281 52.59375 -149.988281 C 50.644531 -149.988281 50.886719 -145.117188 50.402344 -141.222656 Z M 47.722656 -111.273438 "/></g></g></g><g fill="#ffffff" fill-opacity="1"><g transform="translate(201.550219, 239.367011)"><g><path d="M 1.949219 -109.570312 C 3.410156 -110.054688 2.433594 -109.570312 2.679688 -110.054688 C 6.085938 -112.492188 3.164062 -113.707031 4.140625 -117.359375 L 7.546875 -130.507812 C 8.277344 -133.429688 12.175781 -143.902344 13.878906 -146.09375 C 16.070312 -138.058594 12.660156 -61.113281 12.660156 -45.53125 C 12.660156 -27.269531 13.148438 -13.390625 14.367188 3.894531 C 14.609375 5.355469 14.367188 6.816406 14.367188 8.277344 C 14.609375 11.199219 14.609375 22.886719 17.53125 22.886719 C 22.886719 22.886719 22.402344 14.609375 23.617188 6.574219 C 27.515625 -21.425781 38.957031 -78.160156 47.238281 -102.996094 C 48.210938 -105.671875 48.941406 -107.863281 50.160156 -111.273438 C 51.132812 -113.222656 52.59375 -117.359375 54.054688 -118.335938 L 54.054688 -101.046875 C 54.054688 -92.523438 52.835938 -76.453125 53.566406 -68.417969 C 53.808594 -62.574219 53.566406 -56.730469 54.054688 -51.132812 C 54.539062 -45.046875 56 -27.027344 63.304688 -25.566406 L 64.035156 -25.566406 C 68.175781 -25.566406 70.125 -31.167969 71.585938 -33.84375 C 73.046875 -37.984375 74.019531 -43.828125 74.992188 -48.210938 C 78.890625 -67.6875 94.230469 -143.65625 108.839844 -153.882812 C 113.464844 -147.066406 112.734375 -119.308594 112.246094 -109.324219 C 112.246094 -106.648438 112.003906 -106.402344 111.761719 -103.726562 C 111.761719 -99.828125 112.003906 -96.175781 112.003906 -92.039062 C 112.003906 -88.140625 111.273438 -85.464844 111.273438 -80.835938 L 111.273438 -69.878906 C 111.273438 -65.984375 111.03125 -63.304688 111.03125 -58.921875 L 111.273438 -25.078125 L 111.273438 -19.480469 C 111.515625 -17.289062 112.003906 -17.042969 112.003906 -14.121094 C 112.003906 -5.84375 112.246094 1.21875 112.246094 8.765625 C 112.246094 12.660156 112.734375 15.339844 112.734375 19.234375 L 113.464844 30.4375 C 113.707031 33.84375 114.195312 37.496094 114.683594 40.90625 C 114.925781 45.289062 114.925781 48.699219 118.335938 48.699219 C 122.960938 48.699219 120.039062 36.765625 119.796875 31.898438 L 119.066406 12.660156 C 118.335938 6.085938 119.550781 -0.972656 118.578125 -7.0625 C 117.117188 -16.558594 119.550781 -75.480469 119.550781 -87.898438 C 119.550781 -104.457031 124.910156 -160.699219 110.300781 -160.699219 C 108.839844 -160.699219 107.621094 -160.457031 106.402344 -159.726562 C 95.933594 -152.910156 84.734375 -114.4375 81.324219 -103.480469 C 75.480469 -83.515625 72.558594 -60.871094 67.6875 -42.125 C 66.957031 -39.203125 66.472656 -35.304688 64.28125 -33.84375 C 60.140625 -52.59375 60.382812 -57.949219 60.382812 -77.671875 C 60.382812 -81.566406 60.628906 -85.949219 60.382812 -90.332031 C 60.382812 -98.855469 62.332031 -119.796875 58.679688 -125.640625 C 57.707031 -126.855469 56.730469 -127.34375 56 -127.34375 C 54.054688 -127.34375 52.347656 -125.640625 51.132812 -124.179688 C 40.417969 -111.273438 26.785156 -41.394531 22.644531 -18.75 L 22.15625 -14.609375 C 21.671875 -13.636719 21.671875 -13.636719 21.425781 -13.390625 C 21.425781 -13.390625 21.425781 -13.636719 20.695312 -13.148438 L 20.695312 -33.601562 C 20.695312 -36.523438 21.914062 -37.253906 21.914062 -39.933594 L 21.914062 -53.808594 L 22.886719 -80.351562 C 22.644531 -85.707031 23.375 -89.359375 23.375 -93.984375 C 23.375 -101.535156 26.296875 -158.753906 18.019531 -158.753906 C 12.90625 -158.753906 11.445312 -154.613281 9.984375 -149.257812 C 5.84375 -137.328125 1.21875 -125.640625 0.242188 -112.492188 C 0 -110.785156 0.488281 -109.324219 1.949219 -109.570312 Z M 1.949219 -109.570312 "/></g></g></g></svg>